<?xml version="1.0" standalone="no"?>
<!DOCTYPE svg PUBLIC "-//W3C//DTD SVG 20010904//EN"
 "http://www.w3.org/TR/2001/REC-SVG-20010904/DTD/svg10.dtd">
<svg version="1.0" xmlns="http://www.w3.org/2000/svg"
 width="400.000000pt" height="400.000000pt" viewBox="0 0 400.000000 400.000000"
 preserveAspectRatio="xMidYMid meet">
<metadata>
Created by potrace 1.11, written by Peter Selinger 2001-2013
</metadata>
<g transform="translate(0.000000,400.000000) scale(0.100000,-0.100000)"
fill="#000000" stroke="none">
<path d="M367 3985 c-169 -47 -307 -186 -352 -356 -22 -81 -22 -3177 0 -3258
46 -173 183 -310 356 -356 81 -22 3177 -22 3258 0 173 46 310 183 356 356 22
81 22 3177 0 3258 -46 173 -183 310 -356 356 -77 21 -3188 20 -3262 0z m2855
-1051 c62 -21 121 -74 152 -136 32 -65 35 -161 7 -223 -19 -43 -324 -468 -375
-524 -59 -64 -140 -78 -211 -38 -69 39 -104 136 -76 209 5 13 68 104 140 203
l132 180 -470 3 c-258 1 -683 1 -944 0 l-474 -3 498 -678 c273 -373 499 -679
502 -680 3 -1 45 52 95 119 102 138 132 159 217 152 32 -3 64 -13 84 -27 59
-42 86 -130 61 -196 -6 -15 -83 -126 -171 -246 -184 -251 -200 -264 -301 -257
-46 3 -65 10 -93 34 -40 33 -1361 1832 -1381 1881 -18 42 -18 85 1 130 21 50
42 72 90 94 38 18 97 19 1256 19 1073 0 1221 -2 1261 -16z"/>
</g>
</svg>
